<?xml version="1.0" encoding="utf-8"?>
<!-- Generator: Adobe Illustrator 19.0.0, SVG Export Plug-In . SVG Version: 6.00 Build 0)  -->
<svg version="1.0" id="Ebene_1" xmlns="http://www.w3.org/2000/svg" xmlns:xlink="http://www.w3.org/1999/xlink" x="0px" y="0px"
	 viewBox="0 0 15 15" style="enable-background:new 0 0 15 15;" xml:space="preserve">
<style type="text/css">
	.st0{fill:#F58465;}
</style>
<g id="XMLID_1_">
	<polygon id="XMLID_3_" class="st0" points="0,0 0,3 0,6 3,6 3,3 6,3 6,0 3,0 	"/>
	<polygon id="XMLID_11_" class="st0" points="3,9 0,9 0,12 0,15 3,15 6,15 6,12 3,12 	"/>
	<polygon id="XMLID_12_" class="st0" points="12,12 9,12 9,15 12,15 15,15 15,12 15,9 12,9 	"/>
	<polygon id="XMLID_13_" class="st0" points="12,0 9,0 9,3 12,3 12,6 15,6 15,3 15,0 	"/>
</g>
</svg>
