<?xml version="1.0" encoding="utf-8"?>
<!-- Generator: Adobe Illustrator 19.0.0, SVG Export Plug-In . SVG Version: 6.00 Build 0)  -->
<svg version="1.0" id="Ebene_1" xmlns="http://www.w3.org/2000/svg" xmlns:xlink="http://www.w3.org/1999/xlink" x="0px" y="0px"
	 viewBox="0 0 94.3 30.8" style="enable-background:new 0 0 94.3 30.8;" xml:space="preserve">
<style type="text/css">
	.st0{fill:none;stroke:#1D1D1B;stroke-linejoin:round;stroke-miterlimit:3.43;}
</style>
<g id="XMLID_1_">
	<path id="XMLID_21_" class="st0" d="M17,8.8c0-2.2-0.2-3.8-0.6-4.7s-1.3-1.7-2.6-2.3C12.4,1.3,10.8,1,9,1C7.3,1,5.8,1.3,4.6,1.8
		C3.4,2.4,2.5,3.1,2,4.1c-0.5,1-0.8,2.5-0.8,4.6c0,1.5,0.2,2.7,0.6,3.6c0.4,0.9,0.9,1.7,1.4,2.2c0.6,0.5,1.8,1.4,3.6,2.6
		c1.8,1.2,2.9,2,3.4,2.5c0.4,0.5,0.7,1.6,0.7,3.2c0,0.7-0.1,1.3-0.4,1.7c-0.2,0.4-0.6,0.6-1.1,0.6c-0.5,0-0.8-0.1-1-0.4
		c-0.2-0.3-0.3-1-0.3-2v-3.4H1.4v1.8c0,2.1,0.2,3.7,0.6,4.8c0.4,1.1,1.3,2.1,2.7,2.8c1.4,0.7,3,1.1,4.9,1.1c1.8,0,3.3-0.3,4.6-0.9
		c1.3-0.6,2.2-1.4,2.7-2.4c0.5-0.9,0.7-2.4,0.7-4.4c0-2.7-0.4-4.7-1.2-5.9c-0.8-1.2-2.8-2.8-6.1-4.7c-1.1-0.7-1.8-1.2-2-1.7
		C8,9.4,7.9,8.7,7.9,7.8c0-0.7,0.1-1.3,0.3-1.6c0.2-0.4,0.6-0.5,1-0.5c0.4,0,0.7,0.1,0.9,0.4c0.2,0.3,0.3,0.9,0.3,1.8v2.1H17V8.8z"
		/>
	<path class="st0" d="M30.6,6.7c0.3,0.3,0.4,0.9,0.4,1.8v2.3c0,1-0.1,1.7-0.4,2c-0.3,0.3-0.7,0.5-1.4,0.5c-0.1,0-0.3,0-0.5,0v-7
		C29.7,6.3,30.3,6.4,30.6,6.7z M21.6,29.2h7.2V18.1h1.9c1.6,0,2.8-0.2,3.8-0.6c1-0.4,1.6-1.1,2-1.9c0.4-0.8,0.5-2.1,0.5-3.9V9.3
		c0-1.7-0.1-3-0.3-3.8c-0.2-0.8-0.5-1.5-1.1-2.1c-0.5-0.6-1.3-1-2.4-1.3c-1.1-0.3-2.6-0.5-4.5-0.5h-7.2V29.2z"/>
	<path class="st0" d="M46.2,19.3c0.2-2.5,0.6-6.3,1.4-11.6c0.4,4.6,0.7,8.5,1.1,11.6H46.2z M42.1,1.6l-3.7,27.7h7.4l0.4-5h2.6l0.4,5
		h7.4L52.5,1.6H42.1z"/>
	<path id="XMLID_16_" class="st0" d="M76.4,11c0-2.6-0.2-4.5-0.6-5.7C75.3,4,74.4,3,73,2.2C71.6,1.4,69.9,1,67.8,1
		c-1.6,0-2.9,0.3-4.1,0.8c-1.2,0.5-2.1,1.3-2.8,2.2c-0.7,0.9-1.1,1.9-1.2,2.9c-0.1,1-0.2,2.5-0.2,4.5v8.1c0,2.7,0.2,4.7,0.7,6.1
		s1.3,2.4,2.7,3.2c1.4,0.8,3.1,1.1,5.2,1.1c2,0,3.7-0.5,5.1-1.4c1.4-0.9,2.3-2,2.7-3.1c0.4-1.2,0.6-3.2,0.6-6.1v-1.1h-7.2v3.5
		c0,1.5-0.1,2.5-0.2,2.9c-0.2,0.4-0.5,0.6-1.1,0.6c-0.6,0-0.9-0.2-1.1-0.6c-0.2-0.4-0.2-1.3-0.2-2.6V9c0-1.4,0.1-2.3,0.2-2.7
		c0.2-0.4,0.5-0.6,1.1-0.6c0.5,0,0.9,0.2,1,0.5c0.2,0.3,0.2,1.2,0.2,2.6v4.8h7.2V11z"/>
	<polygon id="XMLID_2_" class="st0" points="80.7,29.2 93.2,29.2 93.2,23.7 87.9,23.7 87.9,17.6 92.4,17.6 92.4,12.3 87.9,12.3 
		87.9,7.1 92.7,7.1 92.7,1.6 80.7,1.6 	"/>
</g>
</svg>
